PathFileType	4	(X/Y/Z)	C:\Users\Alexander Denk\OneDrive - Universitaet Duisburg-Essen\Dokumente\GitHub\artisynth_dissertation_models\src\artisynth\models\gait_model\Models\EP010DR1980_BE_3Gang16\Input\EP010DR1980_BE_3Gang16_positions.trc
DataRate	CameraRate	NumFrames	NumMarkers	Units	OrigDataRate	OrigDataStartFrame	OrigNumFrames
100	100	4	41	m	100	96	110
Frame#	Time	LELB			LSHO			RSHO			LUPA			LBHD			RUPA			RBHD			C7			RWRB			LWRB			RELB			RBAK			LANK			LKNE			LPSI			T10			LBTO			RPSI			RKNE			LTIB			RTIB			LTHI			RBTO			RTOE			RANK			RHEE			RTHI			LHEE			LFRM			LWRA			RFRM			LFIN			RFIN			RFHD			RWRA			RASI			LTOE			STRN			CLAV			LASI			LFHD			
		X1	Y1	Z1	X2	Y2	Z2	X3	Y3	Z3	X4	Y4	Z4	X5	Y5	Z5	X6	Y6	Z6	X7	Y7	Z7	X8	Y8	Z8	X9	Y9	Z9	X10	Y10	Z10	X11	Y11	Z11	X12	Y12	Z12	X13	Y13	Z13	X14	Y14	Z14	X15	Y15	Z15	X16	Y16	Z16	X17	Y17	Z17	X18	Y18	Z18	X19	Y19	Z19	X20	Y20	Z20	X21	Y21	Z21	X22	Y22	Z22	X23	Y23	Z23	X24	Y24	Z24	X25	Y25	Z25	X26	Y26	Z26	X27	Y27	Z27	X28	Y28	Z28	X29	Y29	Z29	X30	Y30	Z30	X31	Y31	Z31	X32	Y32	Z32	X33	Y33	Z33	X34	Y34	Z34	X35	Y35	Z35	X36	Y36	Z36	X37	Y37	Z37	X38	Y38	Z38	X39	Y39	Z39	X40	Y40	Z40	X41	Y41	Z41	X42	Y42	Z42	X43	Y43	Z43	

97	0.96	0.538927917480469	1.15722668457031	-1.18359822845459	0.450172393798828	1.49522241210938	-1.19259212493896	0.070100715637207	1.49549157714844	-1.18168560028076	0.497577758789063	1.35120935058594	-1.19486640930176	0.338160278320312	1.63304443359375	-1.19584111785889	-0.00691780519485474	1.23378967285156	-1.16012545776367	0.187770523071289	1.64084875488281	-1.19590846252441	0.253856796264648	1.53530969238281	-1.248103931427	0.00455957508087158	0.881080017089844	-1.05363604736328	0.5475068359375	0.877743591308594	-1.16980427551269	-0.0239607124328613	1.14126733398438	-1.13882537841797	0.109252685546875	1.43481225585937	-1.27919563484192	0.371937591552734	0.0973921813964844	-0.817484664916992	0.408787445068359	0.521090881347656	-1.00607417297363	0.290998901367187	1.06961401367188	-1.29448465633392	0.266310119628906	1.25555847167969	-1.32054709243774	0.357708648681641	0.166957321166992	-0.619424728393554	0.224912200927734	1.06598559570313	-1.28473333549499	0.148211883544922	0.502074798583984	-1.29614405250549	0.415242248535156	0.379106201171875	-0.938667526245117	0.147444122314453	0.352621368408203	-1.36213425064087	0.438976013183594	0.667627807617188	-1.06234677124023	0.229235610961914	0.0341265716552734	-1.24419003295898	0.208649078369141	0.0378743438720703	-1.30307040691376	0.212990859985352	0.0814296875	-1.4549373626709	0.2609658203125	0.0570117492675781	-1.51701042175293	0.121297981262207	0.652423828125	-1.22462002563477	0.330176422119141	0.0346494369506836	-0.854093643188476	0.540591064453125	0.915704223632813	-1.12755198669434	0.492906005859375	0.881867858886719	-1.11468942260742	0.00175949847698212	0.937749145507813	-1.03773258972168	0.535625122070313	0.804523681640625	-1.07832624816895	0.0248671760559082	0.821187255859375	-0.949462173461914	0.200110153198242	1.71442138671875	-1.06310092163086	0.0604678688049316	0.906589965820312	-1.00586860656738	0.133812896728516	1.02958679199219	-1.09938020324707	0.375056213378906	0.139431976318359	-0.668722824096679	0.273107727050781	1.26715441894531	-1.08189118957519	0.264486999511719	1.39914367675781	-1.10316937255859	0.395990997314453	1.03646496582031	-1.12360804748535	0.328958923339844	1.70802307128906	-1.05729751586914
98	0.97	0.539022644042969	1.15458666992187	-1.18340861050288	0.451280120849609	1.49293774414063	-1.19274247280757	0.0711295394897461	1.4939287109375	-1.18125406948725	0.498143859863281	1.3487119140625	-1.19489355007807	0.339720642089844	1.6317841796875	-1.19509344021479	-0.00598591423034668	1.23235388183594	-1.15893513027827	0.189000152587891	1.63920190429688	-1.19592641750971	0.254916778564453	1.53344384765625	-1.24799735562007	0.00481992101669312	0.879860412597656	-1.05179259792964	0.548450805664062	0.875116149902344	-1.17175837246577	-0.0231077365875244	1.13984887695312	-1.13733817593257	0.110210342407227	1.432939453125	-1.27876306072871	0.369800537109375	0.0958637542724609	-0.815932765165964	0.407980316162109	0.519791931152344	-1.0031587173144	0.291469207763672	1.06801599121094	-1.29358096043269	0.267108123779297	1.25343176269531	-1.3195644154648	0.355374359130859	0.165483947753906	-0.617377955595652	0.225687789916992	1.06408544921875	-1.28370885006587	0.147812637329102	0.5017705078125	-1.29863369290034	0.413946228027344	0.376972320556641	-0.93691363064448	0.147034286499023	0.353518157958984	-1.36784519116084	0.437898162841797	0.668151306152344	-1.0577314101855	0.229314895629883	0.0338717041015625	-1.25778521649043	0.208570709228516	0.0377508316040039	-1.31659573380152	0.212230056762695	0.0843511505126953	-1.46717437283198	0.260042755126953	0.0616791687011719	-1.529894496123	0.121178321838379	0.651439453125	-1.22574820248286	0.327994476318359	0.0332208633422851	-0.852491358915964	0.541774353027344	0.913408569335938	-1.12857892910639	0.494086273193359	0.878678466796875	-1.11641417996089	0.00213906049728394	0.936460021972656	-1.03594982449214	0.537133056640625	0.800904541015625	-1.08100147549311	0.0248993511199951	0.820056213378906	-0.947509699980418	0.201423721313477	1.71289294433594	-1.06323205105464	0.0607758445739746	0.905155090332031	-1.00399129788081	0.133818740844727	1.02758801269531	-1.09831730190913	0.372757781982422	0.137887420654297	-0.666921107451121	0.273885192871094	1.26552868652344	-1.081396159331	0.265463806152344	1.39752124023438	-1.10273520962397	0.396122650146484	1.03448059082031	-1.12257244412104	0.330389099121094	1.70655090332031	-1.05728536526362
99	0.98	0.539081176757813	1.15215515136719	-1.18317217095693	0.452459594726562	1.49093237304688	-1.19290624078115	0.0722341156005859	1.49258459472656	-1.18078638299306	0.498827728271484	1.34661193847656	-1.19470718987783	0.341281005859375	1.63052392578125	-1.1943457625707	-0.00495473432540894	1.23113134765625	-1.15786006768544	0.190236877441406	1.63785009765625	-1.19592900689443	0.256013244628906	1.53181396484375	-1.24785773309072	0.00506953763961792	0.878792785644531	-1.0502740538915	0.549332214355469	0.872664123535156	-1.17367383416494	-0.0221833190917969	1.13869750976563	-1.13597730096181	0.111287269592285	1.43123779296875	-1.27827979501088	0.367807464599609	0.0931557540893554	-0.817647711118062	0.406936614990234	0.519400939941406	-0.999668341000875	0.291992492675781	1.06659753417969	-1.29223230965932	0.267927978515625	1.25145092773438	-1.31861342652639	0.352407196044922	0.160551422119141	-0.618448553403218	0.226456619262695	1.06226000976562	-1.28241229089101	0.147384353637695	0.501262847900391	-1.30037068017324	0.412812103271484	0.374993804931641	-0.93550906976064	0.14640559387207	0.354344848632813	-1.37279229958852	0.436696807861328	0.669295837402344	-1.05250879510244	0.229411315917969	0.0336288757324219	-1.27144005807241	0.208481842041016	0.037651741027832	-1.33007483466466	0.211005004882813	0.0877550277709961	-1.47919011529287	0.258875518798828	0.0668643264770508	-1.54252689202627	0.121003326416016	0.650308349609375	-1.22637084801992	0.326230407714844	0.0307380657196045	-0.855014379819234	0.54278369140625	0.911361022949219	-1.12964017327627	0.495209136962891	0.875655395507813	-1.11822252496084	0.00252855610847473	0.935288208007813	-1.03445581658681	0.53862451171875	0.797577941894531	-1.08357277520498	0.0248961601257324	0.81900244140625	-0.945920233090718	0.202816787719727	1.71165270996094	-1.06337161858877	0.0610503768920898	0.9038935546875	-1.00239163812002	0.133862014770508	1.02573425292969	-1.09711128838857	0.369993865966797	0.13391227722168	-0.668262091000875	0.274803375244141	1.26418884277344	-1.08066510613759	0.266511108398438	1.39622473144531	-1.10221216424306	0.396565216064453	1.03355883789063	-1.12052199395498	0.331893157958984	1.70532165527344	-1.05730155022939
100	0.99	0.539213562011719	1.15005151367187	-1.18286996603012	0.453715545654297	1.48923193359375	-1.19306514120102	0.0734332275390625	1.49147143554688	-1.18029217672348	0.499542907714844	1.34458178710938	-1.19465820455551	0.342841369628906	1.629263671875	-1.1935980849266	-0.00385017108917236	1.23012585449219	-1.15690898275375	0.191484619140625	1.63676000976562	-1.19593267965317	0.257229705810547	1.53036340332031	-1.24769843435287	0.00532780981063843	0.877837341308594	-1.04909010457993	0.550141723632813	0.870491271972656	-1.17548924398422	-0.0212000522613525	1.13781237792969	-1.13476753377914	0.11238956451416	1.42977587890625	-1.2777078795433	0.365784240722656	0.0891239929199218	-0.82255308675766	0.406450592041016	0.520083374023438	-0.995440141201019	0.292675933837891	1.06525366210938	-1.29053184652328	0.268516418457031	1.24980334472656	-1.31766588354111	0.348926361083984	0.153625106811523	-0.622390855312347	0.22719157409668	1.06065051269531	-1.28072796773911	0.146829895019531	0.500629913330078	-1.30147143316269	0.412277008056641	0.373857879638672	-0.933789353847504	0.145572021484375	0.355362365722656	-1.3769867682457	0.435443176269531	0.670588562011719	-1.04711982870102	0.229442276000977	0.0335171279907227	-1.28514080953598	0.208393493652344	0.0375798416137695	-1.34354165291786	0.209396011352539	0.0917137985229492	-1.49085789632797	0.257409027099609	0.0726308364868164	-1.5549031996727	0.12094856262207	0.649103759765625	-1.22656659078598	0.324613983154297	0.0271204452514648	-0.860971604824066	0.543593200683594	0.909452941894531	-1.13099838399887	0.496292999267578	0.872876220703125	-1.1199498000145	0.00294945383071899	0.934266052246094	-1.03325328207016	0.54009326171875	0.794630554199219	-1.08595912313461	0.0248697776794434	0.81802880859375	-0.944696519374847	0.204264541625977	1.71069128417969	-1.06350563192368	0.0613640937805176	0.90276220703125	-1.00111668539047	0.133955795288086	1.02410437011719	-1.09568448019028	0.366860443115234	0.127583717346191	-0.672592576503753	0.275878448486328	1.263154296875	-1.07967302083969	0.267681396484375	1.39521264648438	-1.10158937215805	0.396827819824219	1.03215698242188	-1.11883390951157	0.333425476074219	1.70436669921875	-1.05736729574203
